<?xml version="1.0" encoding="UTF-8" standalone="no"?>
<!-- Created with Inkscape (http://www.inkscape.org/) -->

<svg
   xmlns:dc="http://purl.org/dc/elements/1.1/"
   xmlns:cc="http://creativecommons.org/ns#"
   xmlns:rdf="http://www.w3.org/1999/02/22-rdf-syntax-ns#"
   xmlns:svg="http://www.w3.org/2000/svg"
   xmlns="http://www.w3.org/2000/svg"
   xmlns:xlink="http://www.w3.org/1999/xlink"
   xmlns:sodipodi="http://sodipodi.sourceforge.net/DTD/sodipodi-0.dtd"
   xmlns:inkscape="http://www.inkscape.org/namespaces/inkscape"
   width="744.09448819"
   height="1052.3622047"
   id="svg2"
   version="1.1"
   inkscape:version="0.47pre4 r22446"
   sodipodi:docname="CV.svg"
   inkscape:export-filename="/home/lrbabe/workspace/CV/CV.png"
   inkscape:export-xdpi="300"
   inkscape:export-ydpi="300">
  <defs
     id="defs4">
    <inkscape:perspective
       sodipodi:type="inkscape:persp3d"
       inkscape:vp_x="0 : 526.18109 : 1"
       inkscape:vp_y="0 : 1000 : 0"
       inkscape:vp_z="744.09448 : 526.18109 : 1"
       inkscape:persp3d-origin="372.04724 : 350.78739 : 1"
       id="perspective10" />
    <inkscape:perspective
       id="perspective3204"
       inkscape:persp3d-origin="0.5 : 0.33333333 : 1"
       inkscape:vp_z="1 : 0.5 : 1"
       inkscape:vp_y="0 : 1000 : 0"
       inkscape:vp_x="0 : 0.5 : 1"
       sodipodi:type="inkscape:persp3d" />
  </defs>
  <sodipodi:namedview
     id="base"
     pagecolor="#ffffff"
     bordercolor="#666666"
     borderopacity="1.0"
     inkscape:pageopacity="0.0"
     inkscape:pageshadow="2"
     inkscape:zoom="1.4"
     inkscape:cx="384.73601"
     inkscape:cy="183.4232"
     inkscape:document-units="px"
     inkscape:current-layer="svg2"
     showgrid="false"
     inkscape:window-width="1280"
     inkscape:window-height="776"
     inkscape:window-x="1920"
     inkscape:window-y="24"
     inkscape:window-maximized="1"
     inkscape:snap-grids="true">
    <inkscape:grid
       type="xygrid"
       id="grid3942" />
  </sodipodi:namedview>
  <metadata
     id="metadata7">
    <rdf:RDF>
      <cc:Work
         rdf:about="">
        <dc:format>image/svg+xml</dc:format>
        <dc:type
           rdf:resource="http://purl.org/dc/dcmitype/StillImage" />
        <dc:title />
      </cc:Work>
    </rdf:RDF>
  </metadata>
  <g
     inkscape:label="Layer 1"
     inkscape:groupmode="layer"
     id="layer1">
    <text
       xml:space="preserve"
       style="font-size:14px;font-style:normal;font-variant:normal;font-weight:normal;font-stretch:normal;fill:#000000;fill-opacity:1;stroke:none;font-family:Quicksand;-inkscape-font-specification:Quicksand"
       x="230"
       y="387.71936"
       id="text3998"><tspan
         sodipodi:role="line"
         id="tspan4000"
         x="230"
         y="387.71936">// Juin 2006</tspan><tspan
         sodipodi:role="line"
         x="230"
         y="405.8631"
         id="tspan4002"
         style="font-style:normal;font-variant:normal;font-weight:bold;font-stretch:normal;stroke:none;font-family:Quicksand;-inkscape-font-specification:Quicksand Bold">Diplôme Universitaire Technologique d'Informatique :</tspan><tspan
         sodipodi:role="line"
         x="230"
         y="419.89679"
         id="tspan4004"
         style="font-size:11px">Quatrième semestre et stage au Québec, spécialisation Web.</tspan><tspan
         sodipodi:role="line"
         x="230"
         y="434.58765"
         id="tspan2978"
         style="font-size:12px;font-style:italic;-inkscape-font-specification:Bitstream Charter Italic">Université Claude Bernard, Lyon.</tspan></text>
    <rect
       style="fill:#1a1a1a;fill-opacity:1;stroke:none"
       id="rect4012"
       width="112.6436"
       height="30"
       x="227.85715"
       y="462.36218"
       rx="0"
       ry="0" />
    <rect
       ry="0"
       rx="0"
       y="162.36218"
       x="227.85715"
       height="30"
       width="88.281273"
       id="rect4010"
       style="fill:#1a1a1a;fill-opacity:1;stroke:none" />
    <rect
       style="fill:#1a1a1a;fill-opacity:1;stroke:none"
       id="rect4008"
       width="196.21501"
       height="34.999992"
       x="227.85715"
       y="102.36219"
       rx="0"
       ry="0" />
    <rect
       ry="0"
       rx="0"
       y="77.362183"
       x="227.85715"
       height="36.785713"
       width="247.36041"
       id="rect3996"
       style="fill:#1a1a1a;fill-opacity:1;stroke:none" />
    <text
       xml:space="preserve"
       style="font-size:28px;font-style:normal;font-variant:normal;font-weight:normal;font-stretch:normal;fill:#ffffff;fill-opacity:1;stroke:none;font-family:junction regular;-inkscape-font-specification:'junction regular,'"
       x="230"
       y="102.36218"
       id="text2816"><tspan
         sodipodi:role="line"
         id="tspan2818"
         x="230"
         y="102.36218"
         style="font-style:italic;font-variant:normal;font-weight:bold;font-stretch:normal;fill:#ffffff;font-family:Century Schoolbook L;-inkscape-font-specification:Century Schoolbook L Bold Italic">Développeur Web</tspan><tspan
         sodipodi:role="line"
         x="230"
         y="128.24969"
         id="tspan2820"
         style="font-size:18px;font-style:italic;font-variant:normal;font-weight:bold;font-stretch:normal;fill:#ffffff;font-family:Century Schoolbook L;-inkscape-font-specification:Century Schoolbook L Bold Italic">Spécialiste Frontend</tspan></text>
    <text
       xml:space="preserve"
       style="font-size:18px;font-style:italic;font-variant:normal;font-weight:bold;font-stretch:normal;fill:#ffffff;fill-opacity:1;stroke:none;font-family:Century Schoolbook L;-inkscape-font-specification:Bitstream Charter Italic"
       x="230"
       y="182.36218"
       id="text2822"><tspan
         sodipodi:role="line"
         id="tspan2824"
         x="230"
         y="182.36218">Diplômes</tspan></text>
    <text
       id="text2826"
       y="482.36218"
       x="230"
       style="font-size:18px;font-style:italic;font-variant:normal;font-weight:bold;font-stretch:normal;fill:#ffffff;fill-opacity:1;stroke:none;font-family:Century Schoolbook L;-inkscape-font-specification:Bitstream Charter Italic"
       xml:space="preserve"><tspan
         y="482.36218"
         x="230"
         id="tspan2828"
         sodipodi:role="line">Expériences</tspan></text>
    <image
       sodipodi:absref="/home/lrbabe/workspace/CV/IDpic.JPG"
       xlink:href="IDpic.JPG"
       y="77.362183"
       x="60"
       id="image3206"
       height="152.32272"
       width="140"
       style="stroke:none;stroke-width:0.40000001000000002;stroke-miterlimit:4;stroke-opacity:1;stroke-dasharray:none" />
    <text
       xml:space="preserve"
       style="font-size:14px;font-style:normal;font-variant:normal;font-weight:normal;font-stretch:normal;fill:#000000;fill-opacity:1;stroke:none;font-family:Quicksand;-inkscape-font-specification:Quicksand"
       x="230"
       y="212.36229"
       id="text3210"><tspan
         sodipodi:role="line"
         id="tspan3212"
         x="230"
         y="212.36229"
         style="font-weight:normal;-inkscape-font-specification:Bitstream Charter">// Septembre 2009</tspan><tspan
         sodipodi:role="line"
         x="230"
         y="230.50604"
         id="tspan3214"
         style="font-style:normal;font-variant:normal;font-weight:bold;font-stretch:normal;stroke:none;font-family:Quicksand;-inkscape-font-specification:Quicksand Bold">Master of Science in Visual and Web Applications :</tspan><tspan
         sodipodi:role="line"
         x="230"
         y="244.5397"
         id="tspan3216"
         style="font-size:11px">Solutions centrées utilisateur, Programmation avancée en Java,</tspan><tspan
         sodipodi:role="line"
         x="230"
         y="258.2897"
         style="font-size:11px"
         id="tspan2966">Multimedia pour systèmes mobiles, Développement Web intégré, ...</tspan><tspan
         sodipodi:role="line"
         x="230"
         y="272.98056"
         id="tspan2964"
         style="font-size:12px;font-style:italic;-inkscape-font-specification:Bitstream Charter Italic">University of Teesside, Middlesbrough, UK.</tspan></text>
    <text
       id="text3990"
       y="300.04083"
       x="230"
       style="font-size:14px;font-style:normal;font-variant:normal;font-weight:normal;font-stretch:normal;fill:#000000;fill-opacity:1;stroke:none;font-family:Quicksand;-inkscape-font-specification:Quicksand"
       xml:space="preserve"><tspan
         y="300.04083"
         x="230"
         id="tspan3992"
         sodipodi:role="line">// Août 2008</tspan><tspan
         style="font-style:normal;font-variant:normal;font-weight:bold;font-stretch:normal;stroke:none;font-family:Quicksand;-inkscape-font-specification:Quicksand Bold"
         id="tspan3994"
         y="318.18457"
         x="230"
         sodipodi:role="line">Licence Professionelle Métiers du Net :</tspan><tspan
         id="tspan3996"
         y="332.21826"
         x="230"
         sodipodi:role="line"
         style="font-size:11px">Gestion de projets Web, Administration, PHP, Ergonomie, Graphisme,</tspan><tspan
         y="345.96826"
         x="230"
         sodipodi:role="line"
         style="font-size:11px"
         id="tspan2976">MySQL, Java, Droit, Commerce électronique, Stage en Angleterre, ...</tspan><tspan
         y="360.65912"
         x="230"
         sodipodi:role="line"
         id="tspan2974"
         style="font-size:12px;font-style:italic;-inkscape-font-specification:Bitstream Charter Italic">Université Claude Bernard, Bourg en Bresse.</tspan></text>
    <g
       id="g3944"
       transform="translate(2.3428765,52.028168)">
      <text
         id="text4024"
         y="230.33401"
         x="56.349506"
         style="font-size:17.42017937px;font-style:normal;font-variant:normal;font-weight:bold;font-stretch:normal;fill:#000000;fill-opacity:1;stroke:none;font-family:Quicksand;-inkscape-font-specification:Bitstream Charter Bold"
         xml:space="preserve"><tspan
           y="230.33401"
           x="56.349506"
           id="tspan4026"
           sodipodi:role="line">Louis-Rémi Babé</tspan></text>
      <text
         id="text4028"
         y="250.33401"
         x="56.702507"
         style="font-size:14.91588211px;font-style:normal;font-variant:normal;font-weight:normal;font-stretch:normal;fill:#000000;fill-opacity:1;stroke:none;font-family:Quicksand;-inkscape-font-specification:Quicksand"
         xml:space="preserve"><tspan
           y="250.33401"
           x="56.702507"
           id="tspan4030"
           sodipodi:role="line">75 Rue Louise Labé</tspan></text>
      <text
         id="text4032"
         y="270.33401"
         x="56.716171"
         style="font-size:14.702384px;font-style:normal;font-variant:normal;font-weight:normal;font-stretch:normal;fill:#000000;fill-opacity:1;stroke:none;font-family:Quicksand;-inkscape-font-specification:Quicksand"
         xml:space="preserve"><tspan
           y="270.33401"
           x="56.716171"
           id="tspan4034"
           sodipodi:role="line">69720 Saint Bonnet</tspan></text>
      <text
         id="text4036"
         y="290.33401"
         x="56.577736"
         style="font-size:16.44507408px;font-style:normal;font-variant:normal;font-weight:normal;font-stretch:normal;fill:#000000;fill-opacity:1;stroke:none;font-family:Quicksand;-inkscape-font-specification:Quicksand"
         xml:space="preserve"><tspan
           y="290.33401"
           x="56.577736"
           id="tspan4038"
           sodipodi:role="line">(+33) 06.71.11.41.71</tspan></text>
    </g>
    <g
       id="g3984"
       transform="translate(3.222214,70.547159)">
      <g
         id="g3979">
        <text
           xml:space="preserve"
           style="font-size:14.04517078px;font-style:normal;font-variant:normal;font-weight:normal;font-stretch:normal;fill:#000000;fill-opacity:1;stroke:none;font-family:Quicksand;-inkscape-font-specification:Quicksand"
           x="76.717117"
           y="624.14746"
           id="text3845"><tspan
             sodipodi:role="line"
             id="tspan3847"
             x="76.717117"
             y="624.14746">Sportif (natation)</tspan></text>
        <path
           sodipodi:nodetypes="ccc"
           id="path3900"
           d="m 59.177483,620.03918 c 4.188147,-0.96626 7.600303,7.02966 7.600303,7.02966 0,0 -2.977103,-11.31167 9.102265,-18.33649"
           style="fill:none;stroke:#000000;stroke-width:2.5;stroke-linecap:butt;stroke-linejoin:miter;stroke-miterlimit:4;stroke-opacity:1;stroke-dasharray:none" />
      </g>
      <g
         id="g3974">
        <path
           style="fill:none;stroke:#000000;stroke-width:2.5;stroke-linecap:butt;stroke-linejoin:miter;stroke-miterlimit:4;stroke-opacity:1;stroke-dasharray:none"
           d="m 59.177483,599.33105 c 4.188147,-0.96626 7.600303,7.02966 7.600303,7.02966 0,0 -2.977103,-11.31167 9.102265,-18.33649"
           id="path3071"
           sodipodi:nodetypes="ccc" />
        <text
           xml:space="preserve"
           style="font-size:13.07553005px;font-style:normal;font-variant:normal;font-weight:normal;font-stretch:normal;fill:#000000;fill-opacity:1;stroke:none;font-family:Quicksand;-inkscape-font-specification:Quicksand"
           x="76.789764"
           y="602.33136"
           id="text3964"><tspan
             sodipodi:role="line"
             id="tspan3966"
             x="76.789764"
             y="602.33136">Anglais bon niveau</tspan></text>
      </g>
      <g
         id="g2964"
         transform="translate(0,20.83649)">
        <text
           id="text2966"
           y="624.39453"
           x="76.803902"
           style="font-size:12.83984375px;font-style:normal;font-variant:normal;font-weight:normal;font-stretch:normal;fill:#000000;fill-opacity:1;stroke:none;font-family:Quicksand;-inkscape-font-specification:Quicksand"
           xml:space="preserve"><tspan
             y="624.39453"
             x="76.803902"
             id="tspan2968"
             sodipodi:role="line">Permis de conduire</tspan></text>
        <path
           style="fill:none;stroke:#000000;stroke-width:2.5;stroke-linecap:butt;stroke-linejoin:miter;stroke-miterlimit:4;stroke-opacity:1;stroke-dasharray:none"
           d="m 59.177483,620.03918 c 4.188147,-0.96626 7.600303,7.02966 7.600303,7.02966 0,0 -2.977103,-11.31167 9.102265,-18.33649"
           id="path2970"
           sodipodi:nodetypes="ccc" />
      </g>
    </g>
    <rect
       style="fill:none;stroke:#000000;stroke-width:0.40000001;stroke-linejoin:bevel;stroke-miterlimit:4;stroke-opacity:1;stroke-dasharray:none;stroke-dashoffset:0"
       id="rect3722"
       width="139.60001"
       height="151.923"
       x="60.199997"
       y="77.562042" />
  </g>
  <g
     id="g2874"
     transform="translate(24.00722,69.877705)">
    <g
       transform="matrix(0.99134581,0,0,0.99134581,-3.1023532,-91.964785)"
       id="gMail">
      <rect
         style="fill:#ffffff;stroke:#000000;stroke-width:1.0087297;stroke-miterlimit:4;stroke-opacity:1;stroke-dasharray:none;stroke-dashoffset:0"
         id="rect2922"
         width="21.091928"
         height="15.661595"
         x="39.990856"
         y="407.35303" />
      <path
         style="fill:#ffffff;stroke:#000000;stroke-width:1.0087297;stroke-linecap:butt;stroke-linejoin:bevel;stroke-miterlimit:4;stroke-opacity:1;stroke-dasharray:none"
         d="m 39.940791,423.0647 21.192052,0 -10.596021,-10.70252 -10.596031,10.70252 z"
         id="path3696"
         sodipodi:nodetypes="cccc" />
      <use
         style="fill:#000000;stroke:#000000;stroke-width:1.0087297;stroke-miterlimit:4;stroke-opacity:1;stroke-dasharray:none"
         x="0"
         y="0"
         xlink:href="#path3696"
         id="use3700"
         transform="matrix(1,0,0,-1,-2.1867002e-6,830.36768)"
         width="744.09448"
         height="1052.3622" />
    </g>
    <g
       inkscape:export-filename="/home/lrbabe/Desktop/internet.png"
       transform="matrix(0.18803419,0,0,0.18803419,34.958592,331.3527)"
       id="gWeb"
       inkscape:export-xdpi="298.19"
       inkscape:export-ydpi="298.19">
      <path
         style="opacity:0.7;fill:#3b3b3b;fill-opacity:1"
         id="path12"
         d="m 5.5,62 c 0,31.43 26.243,57 58.5,57 32.257,0 58.5,-25.57 58.5,-57 C 122.5,30.57 96.257,5 64,5 31.743,5 5.5,30.57 5.5,62 z" />
      <ellipse
         d="M 121.5,62 C 121.5,92.927946 95.756373,118 64,118 32.243627,118 6.5,92.927946 6.5,62 6.5,31.072054 32.243627,6 64,6 c 31.756373,0 57.5,25.072054 57.5,56 z"
         sodipodi:ry="56"
         sodipodi:rx="57.5"
         sodipodi:cy="62"
         sodipodi:cx="64"
         id="ellipse19"
         ry="56"
         rx="57.5"
         cy="62"
         cx="64"
         style="fill:#969696;fill-opacity:1" />
      <ellipse
         d="M 120.041,62 C 120.041,92.143149 94.95059,116.579 64,116.579 33.04941,116.579 7.9589996,92.143149 7.9589996,62 7.9589996,31.856851 33.04941,7.4210014 64,7.4210014 94.95059,7.4210014 120.041,31.856851 120.041,62 z"
         sodipodi:ry="54.578999"
         sodipodi:rx="56.041"
         sodipodi:cy="62"
         sodipodi:cx="64"
         id="ellipse26"
         ry="54.578999"
         rx="56.041"
         cy="62"
         cx="64"
         style="fill:#7f7f7f;fill-opacity:1" />
      <path
         id="path28"
         transform="matrix(4.1785714,0,0,4.1785714,-2430.3851,-2169.8926)"
         d="m 592.90625,521.3125 c -3.42294,1.02332 -6.28985,3.31841 -8,6.3125 0.055,0.10219 0.11974,0.18395 0.125,0.25 0.005,0.0656 0.007,0.16185 0.0312,0.21875 0.0246,0.0569 0.062,0.0739 0.0937,0.0937 0.0648,0.0407 0.0867,0.20854 0.0625,0.34375 -0.0254,0.15053 0.0235,0.2444 0.125,0.28125 0.0941,0.0328 0.18008,0.14949 0.1875,0.25 0.007,0.0998 0.12316,0.28827 0.25,0.40625 0.19983,0.18523 0.23119,0.18284 0.21875,0 -0.004,-0.0574 -0.038,-0.13617 -0.0625,-0.1875 -0.0245,-0.0513 -0.0611,-0.0732 -0.0937,-0.0937 -0.0329,-0.02 -0.0491,-0.0769 -0.0625,-0.125 -0.0134,-0.0481 -0.0115,-0.1036 0,-0.15625 0.0117,-0.053 0.01,-0.0921 0,-0.125 -0.01,-0.0329 -0.0362,-0.0341 -0.0625,-0.0312 -0.0524,0.006 -0.17188,-0.17962 -0.28125,-0.40625 l -0.1875,-0.4375 0.34375,0.4375 c 0.1972,0.23525 0.39083,0.49549 0.4375,0.5625 0.34294,0.50017 0.78095,0.94574 0.875,0.90625 0.0613,-0.0258 0.0378,0.0712 -0.0625,0.1875 -0.24195,0.27617 -0.11195,0.48225 0.28125,0.4375 0.17422,-0.0201 0.31069,0.0215 0.28125,0.0937 -0.0976,0.23214 0.48369,0.49531 1.03125,0.46875 0.17889,-0.009 0.30839,-0.003 0.4375,0.0312 0.009,0.002 0.0227,-0.002 0.0312,0 0.11601,0.0347 0.23671,0.0843 0.3125,0.15625 0.13258,0.12732 0.38913,0.25493 0.59375,0.28125 0.39774,0.0541 0.86351,0.41683 0.875,0.6875 0.003,0.0924 0.0406,0.16271 0.0937,0.15625 0.0541,-0.006 0.17198,0.0727 0.25,0.15625 0.15274,0.15956 0.55009,0.24066 0.71875,0.1875 0.0562,-0.0177 0.0722,-0.0763 0.0625,-0.125 -0.0153,-0.0835 0.0229,-0.14859 0.0937,-0.15625 0.0713,-0.008 0.14811,0.057 0.15625,0.125 0.008,0.0689 0.0466,0.12825 0.0937,0.15625 0.0459,0.0294 0.0975,0.27901 0.125,0.53125 0.0388,0.3841 0.0168,0.51684 -0.25,0.84375 -0.43556,0.5399 -0.60159,1.54277 -0.3125,1.96875 0.29412,0.43412 0.67814,1.22039 0.84375,1.75 0.0164,0.053 0.075,0.11915 0.15625,0.1875 0.0206,0.0178 0.0391,0.0137 0.0625,0.0312 0.0713,0.0536 0.1341,0.11611 0.21875,0.15625 0.47983,0.22639 0.69297,0.60449 0.625,1.125 -0.0857,0.644 -0.16199,1.41861 -0.15625,1.65625 0.004,0.12373 -0.0311,0.4342 -0.0937,0.71875 -0.0634,0.28263 -0.16046,0.78814 -0.1875,1.09375 -0.028,0.30513 -0.0964,0.57355 -0.15625,0.625 -0.0766,0.0651 -0.0611,0.10428 0.0312,0.0937 0.0933,-0.01 0.0975,0.0207 0.0312,0.125 -0.14862,0.23597 0.0602,0.60149 0.40625,0.71875 0.29101,0.0981 0.65888,0.0415 0.65625,-0.0937 0,-0.0302 -0.0937,-0.11834 -0.1875,-0.1875 -0.16034,-0.11894 -0.15241,-0.13999 0.0625,-0.375 0.16178,-0.17805 0.20756,-0.26559 0.125,-0.3125 -0.0773,-0.0438 0.0347,-0.24377 0.375,-0.625 0.28287,-0.31757 0.57546,-0.58753 0.625,-0.59375 0.15149,-0.0175 0.34505,-0.3932 0.3125,-0.59375 -0.0223,-0.14191 0.0214,-0.2021 0.1875,-0.1875 0.21754,0.018 0.74227,-0.51003 1.21875,-1.25 0.095,-0.14981 0.28936,-0.37197 0.4375,-0.5 0.14838,-0.12779 0.28125,-0.31794 0.28125,-0.40625 0,-0.0876 0.13588,-0.2218 0.3125,-0.3125 0.15742,-0.0812 0.34439,-0.27245 0.5,-0.5 0.0207,-0.0305 0.0425,-0.0619 0.0625,-0.0937 0.0729,-0.11622 0.13033,-0.24798 0.1875,-0.375 0.01,-0.0217 0.0222,-0.0407 0.0312,-0.0625 0.0627,-0.14878 0.0981,-0.29654 0.125,-0.4375 0.0388,-0.2039 0.28308,-0.66294 0.53125,-1.03125 0.31925,-0.47265 0.46301,-0.77638 0.46875,-1.03125 0.004,-0.26277 -0.0526,-0.34012 -0.15625,-0.28125 -0.0787,0.0452 -0.21797,-0.008 -0.3125,-0.125 -0.0945,-0.11703 -0.243,-0.19923 -0.34375,-0.1875 -0.10123,0.0117 -0.46166,-0.15038 -0.8125,-0.34375 -0.51836,-0.28431 -0.66399,-0.32415 -0.78125,-0.1875 -0.0759,0.0919 -0.069,0.0625 0.0312,-0.0937 0.11726,-0.18571 0.13286,-0.33025 0.0625,-0.375 -0.029,-0.019 -0.0428,-0.0431 -0.0625,-0.0937 -0.0197,-0.0506 -0.0312,-0.12899 -0.0312,-0.1875 -1.2e-4,-0.0721 -0.0234,-0.11787 -0.0625,-0.1875 -0.11744,-0.20888 -0.39045,-0.40106 -0.6875,-0.4375 -0.39128,-0.0486 -1.08777,-0.64936 -1.09375,-0.9375 -0.003,-0.11368 -0.0861,-0.19947 -0.15625,-0.1875 -0.17638,0.0285 -0.303,0.0532 -0.375,0.0312 -0.036,-0.011 -0.0529,-0.039 -0.0625,-0.0625 -0.01,-0.0235 0.0143,-0.0579 0.0312,-0.0937 0.0445,-0.0972 0.0114,-0.12759 -0.0625,-0.0625 -0.0663,0.0591 -0.0967,0.15749 -0.0625,0.21875 0.0175,0.0319 0.0343,0.0751 0.0312,0.0937 -0.009,0.0559 -0.13072,0.0521 -0.375,0 -0.12708,-0.0268 -0.19071,-0.11068 -0.15625,-0.1875 0.0352,-0.0761 0.0224,-0.11132 -0.0312,-0.0625 -0.0275,0.0242 -0.0872,0.0415 -0.15625,0.0312 -0.069,-0.0103 -0.14145,-0.0544 -0.21875,-0.0937 -0.1546,-0.0797 -0.28316,-0.0648 -0.28125,0 0.002,0.0658 -0.0654,0.11806 -0.125,0.125 -0.0312,0.004 -0.0557,-0.005 -0.0625,-0.0312 -0.007,-0.0262 0.0116,-0.0816 0.0312,-0.125 0.0512,-0.11032 0.0128,-0.11381 -0.125,-0.0312 -0.10817,0.0656 -0.26611,0.14849 -0.375,0.1875 -0.10721,0.0393 -0.30382,0.19035 -0.40625,0.34375 -0.10937,0.16094 -0.15449,0.25777 -0.21875,0.28125 -0.0643,0.0235 -0.14556,-0.0224 -0.28125,-0.0937 -0.14024,-0.0747 -0.27056,-0.043 -0.40625,0.0625 -0.0507,0.0398 -0.0792,0.0434 -0.125,0.0625 -0.0458,0.0191 -0.0843,0.0323 -0.125,0.0312 -0.0814,-0.002 -0.15986,-0.0444 -0.21875,-0.125 -0.11777,-0.16127 -0.20631,-0.48172 -0.21875,-0.9375 -0.0158,-0.54397 -0.13653,-0.59856 -0.78125,-0.4375 -0.16274,0.0409 -0.24003,0.0448 -0.28125,0.0312 -0.0206,-0.007 -0.0345,-0.009 -0.0312,-0.0312 0.003,-0.0225 0.008,-0.0541 0.0312,-0.0937 0.062,-0.10482 0.0965,-0.21362 0.0625,-0.25 -0.0354,-0.0359 0.009,-0.26643 0.0937,-0.5 0.17039,-0.47504 0.11633,-0.69043 -0.15625,-0.59375 -0.10027,0.0352 -0.24812,0.0806 -0.3125,0.0937 -0.0661,0.0129 -0.12993,0.16977 -0.15625,0.34375 -0.0333,0.21658 -0.16105,0.3602 -0.375,0.4375 -0.10668,0.039 -0.20261,0.0558 -0.28125,0.0625 -0.0786,0.007 -0.1268,-6.3e-4 -0.1875,-0.0312 -0.12139,-0.0612 -0.23354,-0.19639 -0.34375,-0.4375 -0.0604,-0.13037 -0.0914,-0.25504 -0.125,-0.375 -0.10077,-0.35987 -0.10642,-0.67888 0.0312,-0.96875 0.20964,-0.44297 0.84678,-0.99015 1.09375,-0.9375 0.0686,0.0139 0.12179,0.0244 0.15625,0 0.0345,-0.0244 0.065,-0.0644 0.0625,-0.125 -0.0103,-0.20581 0.18603,-0.25858 0.71875,-0.1875 0.2508,0.0352 0.38728,0.14553 0.5,0.4375 0.1826,0.47026 0.4773,0.75826 0.5625,0.5625 0.0716,-0.16393 -0.11947,-0.73941 -0.28125,-0.84375 -0.0549,-0.0356 -0.10583,-0.10928 -0.125,-0.1875 -0.0192,-0.0782 -0.014,-0.14872 0,-0.25 0.0279,-0.20255 0.13646,-0.44767 0.28125,-0.625 0.43029,-0.52315 0.4449,-0.66667 0.21875,-1.0625 -0.19026,-0.33504 -0.17949,-0.34425 0,-0.1875 0.16537,0.14168 0.19133,0.12813 0.1875,-0.0312 -0.002,-0.10506 0.0774,-0.35788 0.1875,-0.5625 0.11009,-0.2039 0.19037,-0.46643 0.1875,-0.59375 -0.004,-0.18882 0.08,-0.20928 0.4375,-0.1875 0.13629,0.008 0.23795,-0.0104 0.3125,-0.0312 0.0746,-0.0208 0.1256,-0.0473 0.125,-0.0937 -0.002,-0.0826 0.11622,-0.17878 0.25,-0.21875 0.1546,-0.045 0.23239,-0.18915 0.21875,-0.34375 -0.0251,-0.28909 0.4384,-0.39638 0.53125,-0.125 0.0409,0.11774 0.0594,0.11401 0.0625,-0.0312 0.006,-0.1893 0.0274,-0.2081 0.125,-0.0312 0.0476,0.0874 0.0788,0.12931 0.0937,0.125 0.015,-0.004 0.0326,-0.025 0.0312,-0.125 -0.001,-0.12756 -0.12053,-0.39163 -0.25,-0.5625 -0.0576,-0.0768 -0.1264,-0.0962 -0.15625,-0.125 0.13856,0.31925 -0.15182,0.19004 -0.34375,-0.15625 -0.0874,-0.15533 -0.1662,-0.29527 -0.25,-0.40625 -0.0933,-0.12361 -0.17396,-0.22223 -0.25,-0.28125 z m 11.9375,1.84375 c 0.0548,0.10841 0.14853,0.19635 0.25,0.1875 -0.0826,-0.0596 -0.16624,-0.13006 -0.25,-0.1875 z m 0.75,0.65625 c -0.0867,0.0192 -0.004,0.12232 0.34375,0.4375 0.22472,0.2039 0.44673,0.46093 0.46875,0.59375 0.002,0.0113 -10e-4,0.021 0,0.0312 0.006,0.041 0.003,0.10011 0,0.125 -0.004,0.0207 -0.0156,0.0533 -0.0312,0.0625 -0.0522,0.0179 -0.17601,-0.0115 -0.375,-0.0625 -0.46164,-0.11966 -0.56735,-0.0113 -0.46875,0.46875 0.034,0.16944 0.0413,0.55131 0.0312,0.84375 -0.0132,0.46906 0.0332,0.49623 0.25,0.40625 0.1345,-0.056 0.25636,-0.0265 0.28125,0.0625 0.0254,0.0886 0.0772,0.20644 0.0937,0.25 0.0151,0.0436 0.10651,-0.0263 0.21875,-0.15625 0.18738,-0.21443 0.19652,-0.21884 0.0625,0.0312 -0.0792,0.15053 -0.0868,0.26316 -0.0312,0.25 0.0292,-0.007 0.0143,0.0135 0,0.0625 -0.0143,0.049 -0.0432,0.13762 -0.0937,0.21875 -0.10027,0.16154 -0.14233,0.31264 -0.0937,0.34375 0.10674,0.0701 -0.52993,0.76426 -0.71875,0.78125 -0.0766,0.008 -0.1105,0.0779 -0.0937,0.1875 0.0177,0.10937 -0.0553,0.46234 -0.15625,0.75 -0.0988,0.2879 -0.14855,0.69771 -0.0937,0.9375 0.0531,0.23884 0.0625,0.42803 0,0.40625 -0.0326,-0.0109 -0.0675,0.0661 -0.0625,0.21875 0.005,0.15262 0.0538,0.38269 0.0937,0.625 0.10171,0.6294 0.16518,0.86395 0.28125,0.8125 0.045,-0.0196 0.11119,0.003 0.1875,0.0625 0.0763,0.0592 0.17856,0.14111 0.25,0.25 0.091,0.14036 0.19561,0.27254 0.3125,0.375 0.11689,0.10246 0.25183,0.19421 0.375,0.25 0.18476,0.0837 0.35623,0.10852 0.5,0.0625 0.0479,-0.0153 0.0865,-0.0618 0.125,-0.0937 0.13043,-0.10889 0.36263,-0.1663 0.5,-0.15625 0.0684,0.006 0.13209,-0.0197 0.21875,-0.0625 0.0867,-0.0428 0.18718,-0.11702 0.25,-0.1875 0.29843,-0.33217 0.55402,-0.37556 0.59375,-0.125 0.009,0.0562 0.0379,0.0697 0.0937,0.0937 0.0558,0.024 0.13894,0.0498 0.21875,0.0312 0.0634,-0.0148 0.11813,-0.0353 0.15625,-0.0312 0.0381,0.004 0.0435,0.0289 0.0625,0.0625 0.038,0.0672 0.0642,0.18753 0.0625,0.4375 -2.6e-4,0.0241 -10e-4,0.0672 0,0.0937 0.0135,0.31294 0.11387,0.77803 0.25,1.09375 0.22113,0.51692 0.25112,0.67754 0.125,1.03125 -0.0888,0.24913 -0.0995,1.027 -0.0312,1.90625 0.0354,0.46212 0.0525,0.90538 0.0625,1.25 0.57029,-1.47299 0.90625,-3.05096 0.90625,-4.71875 0,-2.41398 -0.66594,-4.66859 -1.8125,-6.625 -0.21874,-0.23238 -0.49162,-0.53775 -0.5,-0.59375 -0.008,-0.0486 0.0154,-0.0856 0.0625,-0.0937 -0.7572,-1.12933 -1.65738,-2.14085 -2.71875,-3 -0.0677,-0.005 -0.12735,-0.006 -0.15625,0 z"
         style="fill:#4d4d4d;fill-opacity:1" />
      <path
         id="path49"
         d="m 120.064,74.416 c -0.995,-3.288 -2.256,-6.741 -3.813,-10.04 1.269,-1.44 2.038,-3.353 1.985,-5.451 -0.085,-3.356 -2.211,-6.32 -5.071,-7.622 -0.806,-10.072 -3.83,-20.085 -7.214,-27.583 -1.324,-1.375 -2.718,-2.683 -4.176,-3.921 4.053,7.206 8.256,18.937 9.338,30.886 -0.272,-0.042 -0.548,-0.07 -0.825,-0.082 -1.194,-0.046 -2.309,0.224 -3.297,0.729 C 93.336,38.251 70.144,31.326 56.987,31.326 c -4,0 -8.039,0.375 -12.11,1.113 C 44.66,29.749 43.195,27.601 41.023,26.632 48.522,13.86 59.188,8.71 64.49,6.153 L 64.764,6.019 C 64.509,6.016 64.257,6 64,6 62.67,6 61.354,6.06 60.046,6.146 54.042,9.315 45.356,14.993 39,26.104 c -0.462,-0.043 -0.938,-0.048 -1.434,0.003 -4.414,0.461 -8.607,4.513 -9.185,8.922 -0.104,0.801 -0.072,1.564 0.073,2.28 -6.697,2.758 -13.453,6.466 -20.24,11.101 -0.243,0.946 -0.457,1.902 -0.648,2.866 7.258,-5.127 14.471,-9.143 21.606,-12.079 0.785,1.359 2.07,2.393 3.671,2.934 -1.316,5.634 -2.098,12.085 -2.098,19.52 0,10.346 2.148,19.037 5.267,26.219 -1.656,0.903 -2.851,2.4 -3.292,4.244 C 21.494,87.982 13.413,81.812 8.946,78.179 c 0.368,1.188 0.773,2.358 1.219,3.511 4.905,3.788 12.463,8.929 22.388,12.494 0.009,0.142 0.01,0.28 0.026,0.424 0.523,4.468 4.661,8.521 9.075,8.93 1.336,0.122 2.564,-0.121 3.627,-0.645 4.098,4.914 8.188,8.311 10.952,10.318 2.587,1.877 5.253,3.477 7.896,4.785 1.5,-0.002 2.982,-0.076 4.455,-0.189 -3.479,-1.353 -7.28,-3.379 -11.177,-6.207 -2.654,-1.925 -6.564,-5.172 -10.495,-9.862 1.006,-0.974 1.715,-2.28 2.019,-3.795 2.37,0.253 4.815,0.403 7.355,0.403 20.926,0 45.757,-15.439 54.146,-31.352 0.06,0 0.117,0.008 0.178,0.008 1.506,-0.016 2.912,-0.488 4.102,-1.28 1.933,4.181 3.341,8.558 4.343,12.452 0.382,-1.236 0.714,-2.49 1.009,-3.758 z M 56.287,96.354 c -2.482,0 -4.878,-0.142 -7.194,-0.392 -0.003,-0.081 0.002,-0.16 -0.003,-0.241 -0.28,-4.668 -4.215,-8.571 -8.881,-8.784 -0.817,-0.035 -1.596,0.045 -2.325,0.217 -3.042,-6.977 -5.143,-15.429 -5.143,-25.504 0,-7.295 0.769,-13.619 2.065,-19.13 0.366,0.028 0.738,0.042 1.123,0.022 4.422,-0.227 8.209,-3.745 8.876,-8.058 4.099,-0.77 8.163,-1.167 12.182,-1.167 12.726,0 35.085,6.644 48.355,19.193 -1.538,1.479 -2.485,3.69 -2.451,6.193 0.059,3.791 2.365,6.971 5.534,7.969 -8.187,15.094 -32.023,29.682 -52.138,29.682 z"
         style="fill:#ffffff;fill-opacity:1" />
    </g>
    <g
       style="fill:#000000"
       transform="matrix(0.12646743,0,0,0.12646743,-11.504275,295.39965)"
       id="gGit">
      <path
         id="path2918"
         d="m 429.21501,674.64717 c -1.17427,-1.17426 -0.71873,-3.45148 1.241,-6.20367 1.04922,-1.47349 2.39922,-5.3381 3,-8.58803 1.37592,-7.44304 1.46183,-32.54163 0.11138,-32.54163 -1.80861,0 -2.27424,5.04433 -1.78337,19.31991 0.55275,16.07515 -0.0179,18.07155 -6.14561,21.50053 -5.39068,3.01655 -10.42577,3.70101 -12.43621,1.69056 -2.24871,-2.24871 -2.09926,-3.01549 1.07429,-5.5118 5.29976,-4.1688 6.25812,-6.73083 6.26526,-16.7492 l 0.007,-9.25 -7.25,-0.006 c -13.68059,-0.0105 -19.4321,-3.44162 -25.29941,-15.09253 -2.17426,-4.31752 -5.04383,-8.13413 -7.92902,-10.54585 -6.0674,-5.07172 -6.00696,-6.80588 0.20474,-5.87437 5.31683,0.7973 11.47167,5.06671 13.80274,9.57451 1.63874,3.16898 6.74021,7.33721 10.30892,8.42306 3.47917,1.05861 11.78909,0.79072 14.11691,-0.45509 1.12122,-0.60006 2.99249,-2.98848 4.15837,-5.30759 1.16587,-2.31911 2.78643,-4.9757 3.60122,-5.90355 1.82767,-2.08081 0.89952,-3.81259 -2.04359,-3.81259 -3.67265,0 -16.51511,-3.88737 -21.96351,-6.64829 -6.17977,-3.13152 -14.38729,-11.31701 -17.44649,-17.39965 -3.11755,-6.19867 -5.62997,-21.78374 -4.86472,-30.17698 0.73066,-8.01383 3.56076,-16.03507 7.64864,-21.67823 2.83311,-3.91099 2.9233,-4.3379 1.83201,-8.6718 -1.34262,-5.33203 -0.58091,-14.80414 1.61267,-20.05412 1.51018,-3.61437 1.55649,-3.6368 6.26597,-3.03506 2.66917,0.34105 9.11878,2.78679 14.74455,5.59125 l 10,4.98503 7,-1.41932 c 8.39503,-1.70218 24.66195,-1.89869 34.70915,-0.4193 l 7.29085,1.07354 8.84464,-4.52646 c 9.39435,-4.80777 16.73418,-6.63001 19.03013,-4.72454 2.17154,1.80222 3.97915,12.44366 3.26857,19.24213 -0.61377,5.87229 -0.50231,6.28597 2.96724,11.01244 7.36746,10.03649 9.48139,21.05674 7.46523,38.91746 -0.84725,7.5057 -1.91477,11.91313 -3.80569,15.71249 -2.96423,5.95594 -9.99727,13.01924 -16.02582,16.09478 -4.38998,2.2396 -17.47163,6.11529 -20.7242,6.13994 -1.11106,0.008 -2.68331,0.43472 -3.4939,0.94733 -1.25116,0.79123 -1.14297,1.28417 0.7162,3.26316 4.18828,4.45822 5.25732,9.87316 5.26134,26.64993 0.004,17.04655 0.80463,19.98693 6.44852,23.68495 3.09443,2.02755 3.2948,4.96914 0.44244,6.49567 -4.14502,2.21835 -13.07253,-1.34573 -16.50931,-6.59093 -1.46895,-2.24189 -1.68956,-4.87057 -1.49474,-17.81064 0.22537,-14.96926 -0.23864,-19.17578 -1.99543,-18.09002 -1.26095,0.77931 -1.11656,23.87056 0.19357,30.95774 0.59884,3.23941 2.02673,7.51953 3.1731,9.51139 1.16784,2.02916 1.80215,4.35685 1.44259,5.29383 -1.00811,2.6271 -5.92394,2.02033 -10.50246,-1.29634 -4.59661,-3.32977 -5.83305,-5.21041 -7.049,-10.72165 l -0.84054,-3.80973 -1.25401,4.5 c -1.71829,6.16604 -8.76745,13 -13.40936,13 -1.82368,0 -3.61578,-0.3 -3.98244,-0.66667 z m 19.72634,-19.91512 c 0.78913,-2.05644 0.79102,-26.77505 0.002,-28.83068 -1.59047,-4.14522 -2.39501,0.88364 -2.39501,14.97149 0,14.01443 0.72413,18.20823 2.39301,13.85919 z m 15.10699,-50.38434 c 13.66142,-1.15945 19.53286,-3.13527 25.02262,-8.42046 4.90817,-4.72527 7.47738,-11.70959 7.47738,-20.32703 0,-6.35966 -1.63086,-10.65742 -5.88099,-15.49805 -6.1661,-7.0228 -6.64833,-7.10048 -43.69162,-7.03821 -31.09679,0.0523 -33.36541,0.17822 -37.02691,2.05547 -15.93071,8.16767 -16.62581,32.0804 -1.23303,42.41831 9.63366,6.47004 29.92003,8.96676 55.33255,6.80997 z m -17.86052,-13.72772 c -1.12618,-1.12619 -0.68589,-2.30615 0.86052,-2.30615 0.825,0 1.5,0.42344 1.5,0.94098 0,1.26098 -1.56159,2.1641 -2.36052,1.36517 z m -29.14617,-7.72193 c -3.20329,-3.20329 -3.39701,-9.16564 -0.42073,-12.94936 2.52331,-3.20787 4.21364,-3.31738 6.88846,-0.4463 3.60349,3.86789 2.45128,12.45004 -1.99065,14.82729 -1.61591,0.86481 -2.44612,0.59933 -4.47708,-1.43163 z m 56,0 c -3.20329,-3.20329 -3.39701,-9.16564 -0.42073,-12.94936 2.52331,-3.20787 4.21364,-3.31738 6.88846,-0.4463 3.60349,3.86789 2.45128,12.45004 -1.99065,14.82729 -1.61591,0.86481 -2.44612,0.59933 -4.47708,-1.43163 z"
         style="fill:#000000" />
    </g>
    <path
       style="font-style:normal;font-variant:normal;font-weight:normal;font-stretch:normal;fill:#4d4d4d;fill-opacity:1;font-family:Optimer;-inkscape-font-specification:Optimer"
       d="m 36.0921,383.85746 c -0.01396,0.002 -0.02582,0.005 -0.03549,0.0107 -0.16108,0.0996 0.0047,1.36901 0.252325,1.92974 0.305229,0.69295 0.935723,1.33274 2.334868,2.37042 1.957651,1.45186 2.39178,2.05878 2.846639,3.98386 0.330772,1.39986 0.751377,2.36813 1.417981,3.25532 0.249651,0.33226 0.455304,0.70837 0.454891,0.83515 -0.0016,0.23816 -0.512793,2.2503 -0.916887,3.60716 -0.198712,0.66716 -0.270357,0.78049 -0.536636,0.83871 -0.632607,0.13832 -0.660076,0.1758 -0.252333,0.34827 0.860724,0.36407 1.161686,0.85833 1.311387,2.14652 0.06239,0.53735 0.09982,0.63033 0.174137,0.43357 0.05194,-0.13741 0.05007,-0.52122 -0.0031,-0.85291 -0.06099,-0.37689 -0.05522,-0.64681 0.01427,-0.71788 0.159559,-0.16319 0.393494,0.19604 0.479763,0.73564 0.09517,0.59503 0.295393,0.70324 0.216799,0.11728 -0.07136,-0.53159 0.154802,-0.62769 0.469101,-0.19902 l 0.188363,0.25588 -0.07464,-0.28431 c -0.113309,-0.44 -0.569136,-0.98089 -1.247393,-1.48194 -0.340162,-0.25131 -0.618795,-0.49526 -0.618374,-0.5402 0.0023,-0.22143 0.478297,-2.03275 0.792511,-3.01367 0.226275,-0.70634 0.413366,-1.10523 0.515296,-1.10523 0.215965,0 2.010375,0.78373 2.196289,0.95953 0.160597,0.15189 0.105369,0.4847 -0.334071,2.01859 -0.196029,0.68433 -0.250617,0.76687 -0.561485,0.83515 l -0.344732,0.0746 0.511756,0.3234 c 0.621696,0.39429 0.869552,0.84512 0.948856,1.72008 0.0762,0.84052 0.255882,0.86818 0.255882,0.0392 0,-0.72346 0.235261,-0.8624 0.444237,-0.26298 0.119744,0.34352 0.13652,0.34911 0.287867,0.14216 0.156167,-0.21361 0.161229,-0.21464 0.394469,-0.003 0.277993,0.25159 0.295916,0.19395 0.08529,-0.30564 -0.147408,-0.34963 -0.95398,-1.15378 -1.602763,-1.59922 -0.260242,-0.17867 -0.293382,-0.26217 -0.227454,-0.56861 0.141848,-0.65974 0.631485,-2.28977 0.710773,-2.36687 0.04313,-0.0419 0.550652,-0.15747 1.126557,-0.25587 1.815391,-0.31018 3.229495,-0.98347 4.285936,-2.03991 0.270561,-0.27054 0.945885,-1.10321 1.499726,-1.848 1.547116,-2.08045 2.29733,-2.75062 3.692451,-3.29797 0.434386,-0.17043 0.771608,-0.33009 0.746299,-0.35539 -0.02535,-0.0253 -0.358124,-0.12077 -0.739202,-0.20967 -0.381046,-0.0889 -1.220516,-0.42796 -1.86221,-0.75342 -0.985888,-0.50001 -1.26406,-0.59283 -1.80536,-0.59705 -0.589414,-0.005 -0.731067,0.0527 -1.787578,0.70011 -0.631515,0.38696 -1.387906,0.78542 -1.680976,0.88491 -1.298354,0.44081 -3.292904,0.32291 -5.273898,-0.30918 -1.880624,-0.60008 -3.007158,-1.27932 -5.856738,-3.54319 -1.974178,-1.5684 -2.683835,-2.07598 -2.892827,-2.05412 z m 17.904261,5.1673 c 0.30547,0 0.625479,0.37935 0.625479,0.7392 0,0.63663 -0.767311,0.98147 -1.176318,0.52952 -0.401426,-0.44356 -0.04227,-1.26872 0.550839,-1.26872 z"
       id="gTwitt" />
    <text
       id="text2858"
       y="322.90094"
       x="72.156548"
       style="font-size:12.7513485px;font-style:normal;font-variant:normal;font-weight:normal;font-stretch:normal;fill:#000000;fill-opacity:1;stroke:none;font-family:Quicksand;-inkscape-font-specification:Quicksand"
       xml:space="preserve"><tspan
         y="322.90094"
         x="72.156548"
         id="tspan2860"
         sodipodi:role="line">pro@lrbabe.com</tspan></text>
    <text
       id="text2862"
       y="347.56082"
       x="72.153259"
       style="font-size:12.6850462px;font-style:normal;font-variant:normal;font-weight:normal;font-stretch:normal;fill:#000000;fill-opacity:1;stroke:none;font-family:Quicksand;-inkscape-font-specification:Quicksand"
       xml:space="preserve"><tspan
         y="347.56082"
         x="72.153259"
         id="tspan2864"
         sodipodi:role="line">www.lrbabe.com</tspan></text>
    <text
       id="text2866"
       y="373.42538"
       x="72.231438"
       style="font-size:11.36634064px;font-style:normal;font-variant:normal;font-weight:normal;font-stretch:normal;fill:#000000;fill-opacity:1;stroke:none;font-family:Quicksand;-inkscape-font-specification:Quicksand"
       xml:space="preserve"><tspan
         y="373.42538"
         x="72.231438"
         id="tspan2868"
         sodipodi:role="line">github.com/lrbabe</tspan></text>
    <text
       id="text2870"
       y="398.33459"
       x="72.196899"
       style="font-size:11.48857021px;font-style:normal;font-variant:normal;font-weight:normal;font-stretch:normal;fill:#000000;fill-opacity:1;stroke:none;font-family:Quicksand;-inkscape-font-specification:Quicksand"
       xml:space="preserve"><tspan
         y="398.33459"
         x="72.196899"
         id="tspan2872"
         sodipodi:role="line">twitter.com/lrbabe</tspan></text>
  </g>
  <flowRoot
     xml:space="preserve"
     id="flowRoot2891"
     style="font-size:8px;font-style:normal;font-variant:normal;font-weight:bold;font-stretch:normal;text-align:justify;text-anchor:start;fill:#000000;fill-opacity:1;stroke:none;font-family:Quicksand;-inkscape-font-specification:Bitstream Charter Bold"
     transform="matrix(0.99092946,0,0,0.99092946,3.5383258,-69.649981)"><flowRegion
       id="flowRegion2893"><rect
         id="rect2895"
         width="142.18359"
         height="107.79967"
         x="56.568542"
         y="584.15649"
         style="font-size:8px;font-weight:bold;text-align:justify;text-anchor:start;-inkscape-font-specification:Bitstream Charter Bold" /></flowRegion><flowPara
       id="flowPara2935"><flowSpan
   style="font-size:10.09153557px"
   id="flowSpan2947">Accessibility</flowSpan> AmazonWS <flowSpan
   style="font-size:6.00042725px"
   id="flowSpan3886">Apache</flowSpan><flowSpan
   style="font-size:8.07322884px"
   id="flowSpan2923"> canvas</flowSpan><flowSpan
   style="font-size:5px"
   id="flowSpan2921"> CSS</flowSpan><flowSpan
   style="font-size:9px"
   id="flowSpan2931"> CouchDB</flowSpan><flowSpan
   style="font-size:7.5px"
   id="flowSpan2927"> DOM Storage</flowSpan><flowSpan
   style="font-size:11.10068893px"
   id="flowSpan2959"> HTML5</flowSpan> User Experience <flowSpan
   style="font-size:9.0823822px"
   id="flowSpan3896">Git</flowSpan> Illustrator <flowSpan
   style="font-size:10.09153557px"
   id="flowSpan2965"> Java</flowSpan><flowSpan
   style="font-size:8.57780552px"
   id="flowSpan2951"> Javascript</flowSpan><flowSpan
   style="font-size:12px"
   id="flowSpan2967"> jQuery</flowSpan> Licences <flowSpan
   style="font-size:9.0823822px"
   id="flowSpan3884">Linux</flowSpan><flowSpan
   style="font-size:6px"
   id="flowSpan2971"> MVC</flowSpan><flowSpan
   style="font-size:9px"
   id="flowSpan2973"> Node.js</flowSpan><flowSpan
   style="font-size:7px"
   id="flowSpan2975"> Photoshop <flowSpan
   style="font-size:10.09153557px"
   id="flowSpan2978">PHP</flowSpan></flowSpan><flowSpan
   style="font-size:10px"
   id="flowSpan2983"> Prototypage Rapide</flowSpan><flowSpan
   style="font-size:7.06407499px"
   id="flowSpan3936"> RegExp</flowSpan><flowSpan
   style="font-size:8.57780552px"
   id="flowSpan3938"> Rails</flowSpan><flowSpan
   style="font-size:6px"
   id="flowSpan2989"><flowSpan
     style="font-size:10.09153557px"
     id="flowSpan2992"> SQL </flowSpan><flowSpan
     style="font-size:8px"
     id="flowSpan2999">SVN </flowSpan></flowSpan><flowSpan
   style="font-size:7px"
   id="flowSpan2997">UML </flowSpan><flowSpan
   style="font-size:11px"
   id="flowSpan3001">Web Fonts</flowSpan></flowPara><flowPara
       id="flowPara2901" /><flowPara
       id="flowPara2903" /><flowPara
       id="flowPara2905" /><flowPara
       id="flowPara2907" /><flowPara
       id="flowPara2909" /></flowRoot>  <text
     xml:space="preserve"
     style="font-size:13px;font-style:normal;font-variant:normal;font-weight:normal;font-stretch:normal;fill:#000000;fill-opacity:1;stroke:none;font-family:Quicksand;-inkscape-font-specification:Quicksand"
     x="230"
     y="602.36218"
     id="text3005"><tspan
       sodipodi:role="line"
       id="tspan3007"
       x="230"
       y="602.36218">// Juin - Septembre 2009</tspan><tspan
       sodipodi:role="line"
       x="230"
       y="619.20996"
       id="tspan3009"
       style="font-weight:bold;-inkscape-font-specification:Bitstream Charter Bold">Refonte d'une application Web, projet de Master :</tspan><tspan
       sodipodi:role="line"
       x="230"
       y="634.86218"
       id="tspan3011"><tspan
   style="font-style:normal;font-variant:normal;font-weight:normal;font-stretch:normal;font-family:FreeMono;-inkscape-font-specification:FreeMono"
   id="tspan2981">¬</tspan> Audit d'accessibilité sur la solution existante.</tspan><tspan
       sodipodi:role="line"
       x="230"
       y="651.92975"
       id="tspan3013"><tspan
   style="font-style:normal;font-variant:normal;font-weight:normal;font-stretch:normal;font-family:FreeMono;-inkscape-font-specification:FreeMono"
   id="tspan2983">¬</tspan> Prototypage rapide de l'interface avec jQuery.</tspan><tspan
       sodipodi:role="line"
       x="230"
       y="668.99725"
       id="tspan3015"><tspan
   style="font-style:normal;font-variant:normal;font-weight:normal;font-stretch:normal;font-family:FreeMono;-inkscape-font-specification:FreeMono"
   id="tspan2985">¬</tspan> Développement du <tspan
   style="font-style:italic"
   id="tspan2970">côté serveur</tspan> en JavaScript</tspan></text>
  <text
     id="text3019"
     y="695.69299"
     x="230"
     style="font-size:13px;font-style:normal;font-variant:normal;font-weight:normal;font-stretch:normal;fill:#000000;fill-opacity:1;stroke:none;font-family:Quicksand;-inkscape-font-specification:Quicksand"
     xml:space="preserve"><tspan
       y="695.69299"
       x="230"
       id="tspan3021"
       sodipodi:role="line">// Février - Mai 2009</tspan><tspan
       style="font-weight:bold;-inkscape-font-specification:Bitstream Charter Bold"
       id="tspan3023"
       y="712.54077"
       x="230"
       sodipodi:role="line">Création d'un site associatif, module de Master :</tspan><tspan
       id="tspan3025"
       y="728.19299"
       x="230"
       sodipodi:role="line"><tspan
   style="font-style:normal;font-variant:normal;font-weight:normal;font-stretch:normal;font-family:FreeMono;-inkscape-font-specification:FreeMono"
   id="tspan2979">¬</tspan> Mise en place d'un CMS Drupal.</tspan><tspan
       y="745.26056"
       x="230"
       sodipodi:role="line"
       id="tspan3037"><tspan
   style="font-style:normal;font-variant:normal;font-weight:normal;font-stretch:normal;font-family:FreeMono;-inkscape-font-specification:FreeMono"
   id="tspan2977">¬</tspan> Développement d'un plugin jQuery.</tspan><tspan
       id="tspan3029"
       y="762.32806"
       x="230"
       sodipodi:role="line"><tspan
   style="font-style:normal;font-variant:normal;font-weight:normal;font-stretch:normal;font-family:FreeMono;-inkscape-font-specification:FreeMono"
   id="tspan2975">¬</tspan> Rédaction de la documentation utilisateur.</tspan></text>
  <text
     id="text3854"
     y="787.85541"
     x="230"
     style="font-size:13px;font-style:normal;font-variant:normal;font-weight:normal;font-stretch:normal;fill:#000000;fill-opacity:1;stroke:none;font-family:Quicksand;-inkscape-font-specification:Quicksand"
     xml:space="preserve"><tspan
       y="787.85541"
       x="230"
       id="tspan3856"
       sodipodi:role="line">// Mai - Août 2008</tspan><tspan
       style="font-weight:bold;-inkscape-font-specification:Bitstream Charter Bold"
       id="tspan3858"
       y="804.70319"
       x="230"
       sodipodi:role="line">Création d'une alternative à PowerPoint, stage de Licence :</tspan><tspan
       id="tspan3860"
       y="820.35541"
       x="230"
       sodipodi:role="line"><tspan
   style="font-style:normal;font-variant:normal;font-weight:normal;font-stretch:normal;font-family:FreeMono;-inkscape-font-specification:FreeMono"
   id="tspan2967">¬</tspan> Auto-formation aux langage Ruby et framework Rails.</tspan><tspan
       y="837.42297"
       x="230"
       sodipodi:role="line"
       id="tspan3862"><tspan
   style="font-style:normal;font-variant:normal;font-weight:normal;font-stretch:normal;font-family:FreeMono;-inkscape-font-specification:FreeMono"
   id="tspan2969">¬</tspan> Mise en place d'un serveur LAMP/R et SVN.</tspan><tspan
       y="854.49048"
       x="230"
       sodipodi:role="line"
       id="tspan3864"><tspan
   style="font-style:normal;font-variant:normal;font-weight:normal;font-stretch:normal;font-family:FreeMono;-inkscape-font-specification:FreeMono"
   id="tspan2971">¬</tspan> Réalisation du <tspan
   style="font-style:italic"
   id="tspan3866">player<tspan
   style="font-style:normal"
   id="tspan3868"> avec jQuery.</tspan></tspan></tspan></text>
  <text
     xml:space="preserve"
     style="font-size:13px;font-style:normal;font-variant:normal;font-weight:normal;font-stretch:normal;fill:#000000;fill-opacity:1;stroke:none;font-family:Quicksand;-inkscape-font-specification:Quicksand"
     x="230"
     y="881.29016"
     id="text3908"><tspan
       sodipodi:role="line"
       id="tspan3910"
       x="230"
       y="881.29016">// Mai - Septembre 2007</tspan><tspan
       sodipodi:role="line"
       x="230"
       y="898.13794"
       id="tspan3912"
       style="font-weight:bold;-inkscape-font-specification:Bitstream Charter Bold">Développement Web chez ACTi, Lyon :</tspan><tspan
       id="tspan3916"
       sodipodi:role="line"
       x="230"
       y="913.79016"><tspan
   style="font-style:normal;font-variant:normal;font-weight:normal;font-stretch:normal;font-family:FreeMono;-inkscape-font-specification:FreeMono"
   id="tspan2961">¬</tspan> Développement d'un site de e-Commerce en PHP et jQuery.</tspan><tspan
       id="tspan3918"
       sodipodi:role="line"
       x="230"
       y="930.85773"><tspan
   style="font-style:normal;font-variant:normal;font-weight:normal;font-stretch:normal;font-family:FreeMono;-inkscape-font-specification:FreeMono"
   id="tspan2955">¬</tspan> Rédaction de la documentation utilisateur.</tspan></text>
  <text
     id="text2994"
     y="512.36218"
     x="230"
     style="font-size:13px;font-style:normal;font-variant:normal;font-weight:normal;font-stretch:normal;fill:#000000;fill-opacity:1;stroke:none;font-family:Quicksand;-inkscape-font-specification:Quicksand"
     xml:space="preserve"><tspan
       y="512.36218"
       x="230"
       id="tspan2996"
       sodipodi:role="line">// Janvier - Juin 2010</tspan><tspan
       style="font-weight:bold;-inkscape-font-specification:Bitstream Charter Bold"
       id="tspan2998"
       y="529.20996"
       x="230"
       sodipodi:role="line">Développement Web chez Compilatio, Savoie :</tspan><tspan
       id="tspan3004"
       y="544.86218"
       x="230"
       sodipodi:role="line"><tspan
   id="tspan3006"
   style="font-style:normal;font-variant:normal;font-weight:normal;font-stretch:normal;font-family:FreeMono;-inkscape-font-specification:FreeMono">¬</tspan> Migration des statistiques sur une base de données non-SQL.</tspan><tspan
       y="561.92975"
       x="230"
       sodipodi:role="line"
       id="tspan3018"><tspan
   style="font-style:normal;font-variant:normal;font-weight:normal;font-stretch:normal;font-family:FreeMono;-inkscape-font-specification:FreeMono"
   id="tspan3020">¬</tspan> Refonte de l'interface de traduction des applications.</tspan><tspan
       id="tspan3008"
       y="578.99725"
       x="230"
       sodipodi:role="line"><tspan
   id="tspan3010"
   style="font-style:normal;font-variant:normal;font-weight:normal;font-stretch:normal;font-family:FreeMono;-inkscape-font-specification:FreeMono">¬</tspan> Ajout d'un suivi des emails à l'outil d'emailing interne.</tspan></text>
</svg>
